<?xml version="1.0" encoding="utf-8"?>
<!-- Generator: Adobe Illustrator 16.0.0, SVG Export Plug-In . SVG Version: 6.00 Build 0)  -->
<!DOCTYPE svg PUBLIC "-//W3C//DTD SVG 1.1//EN" "http://www.w3.org/Graphics/SVG/1.1/DTD/svg11.dtd">
<svg version="1.1" id="图层_1" xmlns="http://www.w3.org/2000/svg" xmlns:xlink="http://www.w3.org/1999/xlink" x="0px" y="0px"
	 width="120px" height="60px" viewBox="0 0 120 60" enable-background="new 0 0 120 60" xml:space="preserve">
<g>
	<path fill="#163C65" stroke="#153C65" stroke-width="0.4" d="M45.33,42.323c-0.171,0.068-0.344,0.135-0.521,0.204l1.539,3.922
		l-2.401,0.939l-1.538-3.919c-0.535,0.21-1.071,0.419-1.601,0.627l1.539,3.921l-2.4,0.942l-1.539-3.921
		c-2.628,1.031-4.641,1.821-4.641,1.821l-0.909-2.553c0,0,1.36-0.533,1.841-0.723c0.48-0.188,0.81-0.64,0.466-1.521
		c-0.346-0.88-3.925-10-4.177-10.643c-0.251-0.639-0.746-0.721-1.544-0.407c-0.801,0.313-1.801,0.707-1.801,0.707l-0.974-2.482
		c0,0,2.305-0.904,4.8-1.883l-1.507-3.84l2.4-0.941l1.507,3.839c0.571-0.224,1.114-0.437,1.601-0.627l-1.507-3.84l2.4-0.942
		l1.525,3.886c2.527-0.753,5.956-0.978,7.315,1.463c1.562,2.803-0.369,4.944-0.369,4.944s3.54-0.511,4.828,2.77
		C50.949,37.349,50.25,40.392,45.33,42.323z"/>
	<path fill="#FFFFFF" stroke="#153C65" stroke-width="0.4" d="M40.797,35.007c-0.72,0.283-1.201,0.472-1.201,0.472l-1.88,0.738
		l2.01,5.121c0.261-0.103,0.934-0.366,2.641-1.037c2.56-1.004,3.392-2.533,2.639-4.452C44.252,33.928,41.519,34.725,40.797,35.007z"
		/>
	<path fill="#FFFFFF" stroke="#153C65" stroke-width="0.4" d="M41.034,29.143c-0.77-1.96-3.208-1.234-4.409-0.764
		c-0.866,0.34-1.455,0.572-1.72,0.676l1.845,4.7l3.178-1.247C40.719,32.067,41.728,30.91,41.034,29.143z"/>
	<path fill-rule="evenodd" clip-rule="evenodd" fill="#163C65" stroke="#153C65" stroke-width="0.4" d="M51.775,31.41l-0.938,2.15
		c-0.142,0.325-0.139,0.679-0.018,0.981c0.12,0.308,0.355,0.566,0.681,0.708l3.327,1.451l3.328,1.452
		c0.649,0.284,1.406-0.014,1.688-0.663c0.141-0.324,0.138-0.678,0.018-0.98l0,0l-0.255-0.649l-0.574-1.463l-0.109-0.279l8.364-3.281
		c0.659-0.259,0.984-1.002,0.727-1.662l-0.937-2.39c-0.261-0.659-1.006-0.985-1.665-0.727l-0.207,0.081l-0.725,1.664l1.4-0.55
		l0.938,2.39l-9.56,3.751l1.152,2.935l0.255,0.649l-6.654-2.903l1.452-3.328L51.775,31.41L51.775,31.41z M57.865,18.396l3.327,1.451
		l3.327,1.453c0.324,0.142,0.563,0.402,0.682,0.707c0.12,0.305,0.123,0.658-0.019,0.982l-1.452,3.327l-1.451,3.328
		c-0.283,0.647-1.039,0.946-1.69,0.663c-0.325-0.142-0.56-0.401-0.681-0.709l0,0l-0.254-0.648l-0.574-1.463l-0.109-0.276
		l-8.364,3.282c-0.658,0.258-1.403-0.068-1.663-0.729l-0.937-2.388c-0.258-0.66,0.066-1.404,0.726-1.663l8.362-3.282l-0.109-0.278
		l-0.574-1.463l-0.254-0.647l0,0c-0.12-0.306-0.125-0.658,0.017-0.982C56.458,18.408,57.215,18.111,57.865,18.396L57.865,18.396z
		 M58.244,28.872l-1.195,0.468l-1.195,0.469l0.469,1.195l2.39-0.938L58.244,28.872L58.244,28.872z"/>
	
		<text transform="matrix(0.9309 -0.3653 0.3653 0.9309 69.7363 37.0283)" fill="#163C65" stroke="#153C65" stroke-width="0.4" font-family="'MicrosoftYaHei'" font-size="35.4336">¥</text>
</g>
</svg>
